REM DIRINDEX 1\2,1\3
REM DIRNAME folder01,folder02,folder03
TITLE ""
FILE "DISC1Track24.mp3" MP3
  TRACK 01 AUDIO
    TITLE "0:"
    INDEX 01 00:00:00
  TRACK 02 AUDIO
    TITLE "3:cjc133_1060"
    INDEX 01 00:00:21
  TRACK 03 AUDIO
    TITLE "0:"
    INDEX 01 00:01:52
  TRACK 04 AUDIO
    TITLE "2:cjc133_1061"
    INDEX 01 00:02:30
  TRACK 05 AUDIO
    TITLE "2:cjc133_1062"
    INDEX 01 00:06:41
  TRACK 06 AUDIO
    TITLE "2:cjc133_1063"
    INDEX 01 00:09:42
  TRACK 07 AUDIO
    TITLE "0:"
    INDEX 01 00:11:62
  TRACK 08 AUDIO
    TITLE "2:cjc133_1064"
    INDEX 01 00:12:34
  TRACK 09 AUDIO
    TITLE "2:cjc133_1065"
    INDEX 01 00:13:57
  TRACK 10 AUDIO
    TITLE "2:cjc133_1066"
    INDEX 01 00:16:59
  TRACK 11 AUDIO
    TITLE "0:"
    INDEX 01 00:18:68
  TRACK 12 AUDIO
    TITLE "2:cjc133_1067"
    INDEX 01 00:19:42
  TRACK 13 AUDIO
    TITLE "2:cjc133_1068"
    INDEX 01 00:21:19
  TRACK 14 AUDIO
    TITLE "2:cjc133_1069"
    INDEX 01 00:24:41
  TRACK 15 AUDIO
    TITLE "0:"
    INDEX 01 00:27:06
  TRACK 16 AUDIO
    TITLE "2:cjc133_1070"
    INDEX 01 00:27:53
  TRACK 17 AUDIO
    TITLE "2:cjc133_1071"
    INDEX 01 00:28:57
  TRACK 18 AUDIO
    TITLE "2:cjc133_1072"
    INDEX 01 00:31:49
  TRACK 19 AUDIO
    TITLE "0:"
    INDEX 01 00:33:44
  TRACK 20 AUDIO
    TITLE "2:cjc133_1073"
    INDEX 01 00:34:20
  TRACK 21 AUDIO
    TITLE "2:cjc133_1074"
    INDEX 01 00:37:20
  TRACK 22 AUDIO
    TITLE "2:cjc133_1075"
    INDEX 01 00:40:24
  TRACK 23 AUDIO
    TITLE "0:"
    INDEX 01 00:42:41
  TRACK 24 AUDIO
    TITLE "2:cjc133_1076"
    INDEX 01 00:43:19
  TRACK 25 AUDIO
    TITLE "2:cjc133_1077"
    INDEX 01 00:44:34
  TRACK 26 AUDIO
    TITLE "2:cjc133_1078"
    INDEX 01 00:47:32
  TRACK 27 AUDIO
    TITLE "0:"
    INDEX 01 00:49:39
  TRACK 28 AUDIO
    TITLE "2:cjc133_1079"
    INDEX 01 00:50:13
  TRACK 29 AUDIO
    TITLE "2:cjc133_1080"
    INDEX 01 00:53:33
  TRACK 30 AUDIO
    TITLE "2:cjc133_1081"
    INDEX 01 00:56:45
  TRACK 31 AUDIO
    TITLE "0:"
    INDEX 01 00:59:00
  TRACK 32 AUDIO
    TITLE "2:cjc133_1082"
    INDEX 01 00:59:49
  TRACK 33 AUDIO
    TITLE "2:cjc133_1083"
    INDEX 01 01:02:67
  TRACK 34 AUDIO
    TITLE "2:cjc133_1084"
    INDEX 01 01:06:06
  TRACK 35 AUDIO
    TITLE "0:"
    INDEX 01 01:08:23
  TRACK 36 AUDIO
    TITLE "2:cjc133_1085"
    INDEX 01 01:09:01
  TRACK 37 AUDIO
    TITLE "2:cjc133_1086"
    INDEX 01 01:12:56
  TRACK 38 AUDIO
    TITLE "2:cjc133_1087"
    INDEX 01 01:16:42
  TRACK 39 AUDIO
    TITLE "0:"
    INDEX 01 01:19:34
  TRACK 40 AUDIO
    TITLE "2:cjc133_1088"
    INDEX 01 01:20:08
  TRACK 41 AUDIO
    TITLE "2:cjc133_1089"
    INDEX 01 01:22:41
  TRACK 42 AUDIO
    TITLE "2:cjc133_1090"
    INDEX 01 01:25:27
  TRACK 43 AUDIO
    TITLE "0:"
    INDEX 01 01:27:26
  TRACK 44 AUDIO
    TITLE "2:cjc133_1091"
    INDEX 01 01:28:04
  TRACK 45 AUDIO
    TITLE "2:cjc133_1092"
    INDEX 01 01:29:25
  TRACK 46 AUDIO
    TITLE "2:cjc133_1093"
    INDEX 01 01:32:13
  TRACK 47 AUDIO
    TITLE "0:"
    INDEX 01 01:34:06
  TRACK 48 AUDIO
    TITLE "2:cjc133_1094"
    INDEX 01 01:34:54
  TRACK 49 AUDIO
    TITLE "2:cjc133_1095"
    INDEX 01 01:36:21
  TRACK 50 AUDIO
    TITLE "2:cjc133_1096"
    INDEX 01 01:39:64
  TRACK 51 AUDIO
    TITLE "0:"
    INDEX 01 01:42:37
  TRACK 52 AUDIO
    TITLE "2:cjc133_1097"
    INDEX 01 01:43:09
  TRACK 53 AUDIO
    TITLE "2:cjc133_1098"
    INDEX 01 01:44:19
  TRACK 54 AUDIO
    TITLE "2:cjc133_1099"
    INDEX 01 01:48:03
  TRACK 55 AUDIO
    TITLE "0:"
    INDEX 01 01:50:66
  TRACK 56 AUDIO
    TITLE "2:cjc133_1100"
    INDEX 01 01:51:44
  TRACK 57 AUDIO
    TITLE "2:cjc133_1101"
    INDEX 01 01:52:51
  TRACK 58 AUDIO
    TITLE "2:cjc133_1102"
    INDEX 01 01:56:37
  TRACK 59 AUDIO
    TITLE "0:"
    INDEX 01 01:59:32
  TRACK 60 AUDIO
    TITLE "2:cjc133_1103"
    INDEX 01 02:00:10
  TRACK 61 AUDIO
    TITLE "2:cjc133_1104"
    INDEX 01 02:01:29
  TRACK 62 AUDIO
    TITLE "2:cjc133_1105"
    INDEX 01 02:04:51
  TRACK 63 AUDIO
    TITLE "0:"
    INDEX 01 02:07:04
